<svg width="100%" height="100%" viewBox="0 0 873 1134" xmlns="http://www.w3.org/2000/svg" xmlns:xlink="http://www.w3.org/1999/xlink" style="fill-rule:evenodd;clip-rule:evenodd;stroke-linejoin:round;stroke-miterlimit:2"><path id="zora_text" d="M164.553,1082.023l-65.802,0.128c-9.033,0.019-19.988,1.141-28.855,2.293c7.503,-5.999 15.814,-13.634 20.903,-21.352l73.765,-111.936c3.377,-5.126 4.348,-9.622 3.389,-15.685l-3.113,-19.656l-129.401,0c-14.907,0-19.093,-3.011-19.093,-3.011c-1.628,13.045-5.281,30.714-5.281,36.142c0,5.931 4.93,12.214 4.93,12.214l55.054,-0.113c6.097,-0.011 15.485,-1.76 22.742,-3.347c-6.615,4.994-15.874,13.113-22.769,23.645l-67.305,102.798c-3.362,5.13-4.326,9.626-3.362,15.685l4.36,27.54l140.398,0c14.907,0 19.093,3.022 19.093,3.022c1.624,-13.052 5.281,-30.725 5.281,-36.154c0,-5.927-4.934,-12.214-4.934,-12.214m141.297,-169.234c-66.187,0-115.147,45.636-115.147,113.636c0,63.165 42.009,103.965 104.57,103.965c66.489,0 114.845,-46.24 114.845,-113.731c0,-62.466-41.405,-103.871-104.267,-103.871m-12.089,43.823c31.431,0 55.005,28.409 55.005,73.138c0,34.151-13.902,57.12-42.311,56.516c-33.245,-0.604-54.4,-31.431-54.4,-73.138c0,-31.431 12.089,-56.516 41.707,-56.516m278.216,79.693c23.139,-5.614 48.333,-24.344 48.333,-61.257c0,-45.549-36.501,-62.258-99.692,-62.258c-27.268,0-55.617,3.445-69.398,6.044l0,204.908c0,0 6.286,5.138 12.214,5.138c7.238,0 33.071,-1.511 48.231,-1.511l0,-169.385c6.116,-0.453 11.893,-0.767 15.98,-0.767c20.529,0 32.172,8.349 32.172,26.596c0,14.711-7.257,24.597-28.613,32.202c-7.805,2.78-11.296,7.476-6.913,17.748l26.044,60.962c11.379,26.641 25.844,38.692 49.606,38.692c23.555,0 38.345,-12.233 38.345,-31.715c-25.727,-6.611-45.296,-44.435-66.304,-65.394l-0.004,-0.004Zm223.03,-116.866c0,0-6.286,-5.138-12.214,-5.138c-4.533,0-34.933,1.511-53.815,1.511c0,0 1.504,12.656-2.44,23.411l-67.694,184.519c0,0 6.286,5.138 12.214,5.138c6.679,0 27.54,-1.511 44.499,-1.511l17.559,-50.657l57.147,0l16.086,47.03c0,0 6.282,5.138 12.214,5.138c7.658,0 33.279,-1.511 53.732,-1.511l-77.286,-207.93Zm-36.543,39.833c1.092,4.616 4.87,20.147 11.307,42.085l10.585,36.067l-40.479,0l10.495,-38.798c3.483,-12.886 7.132,-33.717 8.096,-39.353l-0.004,0Z" style="fill:#fc0;fill-rule:nonzero"/><path id="shopping_bag_line" d="M196.162,877.051l-134.191,-89.617c-6.314,-4.216-9.981,-11.443-9.656,-19.029l23.366,-544.759c0.497,-11.575 10.155,-20.828 21.741,-20.827l80.754,0l-0.997,-30.997l-0.011,-0.699c0,-93.946 82.401,-171.123 185.199,-171.123c71.812,0 133.825,37.778 164.512,92.435c86.599,14.473 149.722,81.559 149.722,165.158l0,15.806l1.923,30.676l46.656,0c10.868,-0.001 20.154,8.141 21.575,18.915l66.637,505.134c0.125,0.944 0.187,1.895 0.187,2.847c0,11.545-9.188,21.183-20.719,21.735l-583.569,27.99c-4.652,0.224-9.255,-1.052-13.128,-3.638l-0,-0.008Zm12.085,-18.096l583.569,-27.99l-66.637,-505.134l-67.098,0l-3.241,-51.752l0,-16.486c0,-76.433-61.098,-136.311-142.129,-145.155c-24.952,-53.316-82.874,-90.679-150.345,-90.679c-90.263,0-163.439,66.871-163.439,149.363l1.719,53.456l-103.225,0l-23.366,544.759l134.191,89.617Zm56.055,-687.832c0,-49.497 43.906,-89.617 98.064,-89.617c32.803,0 61.839,14.718 79.644,37.321c-55.152,16.577-100.607,52.969-112.333,105.752l-67.098,0l1.723,-53.456Zm199.57,53.456l-56.773,0c9.849,-25.466 28.908,-38.167 56.773,-47.166l0,47.166Zm67.098,0l0,-47.166c27.861,8.999 41.764,21.703 51.612,47.166l-51.612,0Zm-144.516,37.733l165.162,0l41.291,7.053l0,23.585l-206.449,0l-0.004,-30.638Zm-257.389,69.549l9.649,-69.549l185.804,0l0,30.638l-92.904,1.575l-23.366,522.769l-11.182,-10.219l22.765,-487.023l-90.766,11.809Zm80.55,-32.429l2.913,-15.361l-54.861,0l-3.124,22.531l55.073,-7.17Zm76.448,-128.309c0,0.232-1.009,31.696-1.009,31.696l28.315,0c14.397,-40.03 46.191,-71 86.493,-90.803c-11.107,-5.595-23.906,-8.749-37.495,-8.749c-41.628,0-76.304,29.814-76.304,67.857Z"/><path id="africa_line" d="M476.617,349.051l0.073,-0.114l9.958,21.413l124.101,8.368l17.412,10.884l79.613,138.797l42.379,-5.92l20.158,34.948l-86.262,110.41l6.146,67.585l-8.553,19.331l-27.125,20.495l-3.596,32.973l-5.346,12.07l-53.853,60.777l-12.777,7.046l-58.734,9.603l-24.099,-14.427l-43.585,-127.308l0.336,-15.013l14.718,-37.408l-31.983,-57.974l-1.915,-16.335l5.27,-18.976l-26.547,-5.308l-66.448,13.721l-20.502,-6.672l-61.544,-67.698l-5.659,-14.639l0,-57.698l4.582,-13.358l80.777,-103.856l14.926,-8.285l96.012,-9.988l-0.002,-0.067l0.099,0.057l0.055,-0.006l0.002,0.039l21.908,12.534Zm-21.219,9.233l-94.604,9.841l-80.777,103.856l0,57.698l61.544,67.698l70.777,-14.616l53.853,10.771l-11.541,41.545l36.924,66.931l-18.462,46.928l43.585,127.308l58.734,-9.603l53.853,-60.777l4.616,-42.311l34.62,-26.158l-6.925,-76.161l91.566,-117.199l-56.947,7.956l-86.931,-151.554l-136.938,-9.233l-9.531,-20.498l-0.004,-0.008l0.024,-0.038l-7.437,-12.375Z"/></svg>