<?xml version="1.0" encoding="UTF-8" standalone="no"?><!DOCTYPE svg PUBLIC "-//W3C//DTD SVG 1.1//EN" "http://www.w3.org/Graphics/SVG/1.1/DTD/svg11.dtd"><svg width="100%" height="100%" viewBox="0 0 156 179" version="1.1" xmlns="http://www.w3.org/2000/svg" xmlns:xlink="http://www.w3.org/1999/xlink" xml:space="preserve" xmlns:serif="http://www.serif.com/" style="fill-rule:evenodd;clip-rule:evenodd;stroke-miterlimit:1.5;"><g id="zora_logo"><g id="bag"><path id="hand_2" d="M55.643,29.404c-0.298,-1.356 -0.613,-3.954 -0.613,-5.398l0,-2.559c0,-10.801 8.769,-19.569 19.569,-19.569l7.112,0c10.801,0 19.569,8.769 19.569,19.569l0,2.559c0,2.421 -0.571,5.206 -1.376,7.347" style="fill:none;stroke:#000;stroke-width:2.08px;"/><path id="hand_1" d="M63.832,31.655c-0.298,-1.356 -0.613,-3.954 -0.613,-5.398l0,-2.559c0,-10.801 8.769,-19.569 19.569,-19.569l7.112,0c10.801,0 19.569,8.769 19.569,19.569l0,2.559c0,2.421 -0.192,3.493 -0.997,5.634" style="fill:none;stroke:#000;stroke-width:2.08px;"/><g id="bag_line"><path id="bag_line_1" d="M17.657,31.446l9.865,-0.065l6.93,-6.059l27.742,2.627l-3.487,10.757l-6.086,0.988l0.083,4.076l-11.435,15.164l0,7.407l-2.445,5.046c0,0 15.955,21.579 25.604,15.127l7.746,-2.576l4.453,2.558l-0.342,8.748l3.387,2.559l-43.111,-11.716l-11.381,0.63l-12.184,0.845l4.66,-56.116Z" style="fill:#c00;"/><path id="bag_line_2" d="M60.48,33.238l1.782,-5.354l68.425,3.342l14.497,94.941l-108.021,4.569l-13.019,-5.139l-14.225,0.663l3.086,-39.989l0.108,-0.12l-0.117,1.413l12.184,-0.845l11.381,-0.63l43.111,11.716l-3.387,-2.559l0.342,-8.748l-4.453,-2.558l-7.746,2.576c-9.649,6.452 -25.604,-15.127 -25.604,-15.127l2.445,-5.046l0,-7.407l11.435,-15.164l-0.037,-1.805l2.386,-2.666l3.653,-0.593l1.773,-5.468Z" style="fill:#fc0;"/></g><path id="africa_map" d="M59.668,35.743l0.755,0.981c0,0 24.304,-5.446 25.137,0.74l-0.174,3.459l7.025,4.507l5.142,-3.467l10.973,3.827c0,0 7.273,-4.703 7.663,-0.141c0,0 1.05,19.872 15.025,24.318l8.276,-1.775c0,0 5.206,4.912 -0.213,15.694l-11.651,13.53l0.783,15.664l-6.584,4.462l-0.068,6.263l-4.753,2.624l-6.892,7.587l-12.415,2.403l-6.328,-4.717l-10.266,-20.218l2.205,-8.643l-3.037,-4.646l-2.558,-0.927l1.96,0.533l-3.387,-2.559l0.342,-8.748l-4.453,-2.558l-7.746,2.576c-9.649,6.452 -25.604,-15.127 -25.604,-15.127l2.445,-5.046l0,-7.407l11.435,-15.164l-0.083,-4.076l6.086,-0.988l0.96,-2.962Z" style="fill:#fff;stroke:#000;stroke-width:2.08px;stroke-linecap:round;stroke-linejoin:round;"/></g><path id="zora_text" d="M29.259,169.338l-11.7,0.023c-1.606,0.003 -3.554,0.203 -5.131,0.408c1.334,-1.067 2.812,-2.424 3.717,-3.797l13.116,-19.904c0.6,-0.911 0.773,-1.711 0.603,-2.789l-0.554,-3.495l-23.009,0c-2.651,0 -3.395,-0.535 -3.395,-0.535c-0.289,2.32 -0.939,5.461 -0.939,6.426c0,1.055 0.877,2.172 0.877,2.172l9.789,-0.02c1.084,-0.002 2.753,-0.313 4.044,-0.595c-1.176,0.888 -2.823,2.332 -4.049,4.204l-11.968,18.279c-0.598,0.912 -0.769,1.712 -0.598,2.789l0.775,4.897l24.964,0c2.651,0 3.395,0.537 3.395,0.537c0.289,-2.321 0.939,-5.463 0.939,-6.429c0,-1.054 -0.877,-2.172 -0.877,-2.172m25.124,-30.092c-11.769,0 -20.474,8.115 -20.474,20.206c0,11.231 7.47,18.486 18.594,18.486c11.823,0 20.421,-8.222 20.421,-20.223c0,-11.107 -7.362,-18.469 -18.54,-18.469m-2.15,7.792c5.589,0 9.781,5.051 9.781,13.005c0,6.072 -2.472,10.157 -7.523,10.049c-5.911,-0.107 -9.673,-5.589 -9.673,-13.005c0,-5.589 2.15,-10.049 7.416,-10.049m49.47,14.17c4.114,-0.998 8.594,-4.329 8.594,-10.892c0,-8.099 -6.49,-11.07 -17.726,-11.07c-4.849,0 -9.889,0.613 -12.34,1.075l0,36.435c0,0 1.118,0.914 2.172,0.914c1.287,0 5.88,-0.269 8.576,-0.269l0,-30.119c1.087,-0.081 2.115,-0.136 2.841,-0.136c3.65,0 5.721,1.485 5.721,4.729c0,2.616 -1.29,4.374 -5.088,5.726c-1.388,0.494 -2.009,1.329 -1.229,3.156l4.631,10.84c2.023,4.737 4.595,6.88 8.821,6.88c4.188,0 6.818,-2.175 6.818,-5.639c-4.575,-1.176 -8.054,-7.901 -11.79,-11.628l-0.001,-0.001l-0,0Zm39.657,-20.78c0,0 -1.118,-0.914 -2.172,-0.914c-0.806,0 -6.211,0.269 -9.569,0.269c0,0 0.267,2.25 -0.434,4.163l-12.037,32.81c0,0 1.118,0.914 2.172,0.914c1.188,0 4.897,-0.269 7.912,-0.269l3.122,-9.007l10.161,0l2.86,8.362c0,0 1.117,0.914 2.172,0.914c1.362,0 5.917,-0.269 9.554,-0.269l-13.742,-36.972l-0,0Zm-6.498,7.083c0.194,0.821 0.866,3.582 2.011,7.483l1.882,6.413l-7.198,0l1.866,-6.899c0.619,-2.291 1.268,-5.995 1.44,-6.997l-0.001,0l0,-0Z" style="fill:#fc0;fill-rule:nonzero;"/></g></svg>