<?xml version="1.0" encoding="UTF-8" standalone="no"?><!DOCTYPE svg PUBLIC "-//W3C//DTD SVG 1.1//EN" "http://www.w3.org/Graphics/SVG/1.1/DTD/svg11.dtd"><svg width="100%" height="100%" viewBox="0 0 596 842" version="1.1" xmlns="http://www.w3.org/2000/svg" xmlns:xlink="http://www.w3.org/1999/xlink" xml:space="preserve" xmlns:serif="http://www.serif.com/" style="fill-rule:evenodd;clip-rule:evenodd;stroke-linejoin:round;stroke-miterlimit:2;"><path d="M234.963,470.54l-35.521,-23.722c-1.673,-1.117 -2.642,-3.027 -2.556,-5.037l6.185,-144.2c0.132,-3.082 2.67,-5.513 5.755,-5.513l21.376,0l-0.264,-8.205c-0.002,-0.062 -0.003,-0.123 -0.003,-0.185c0,-24.868 21.812,-45.297 49.023,-45.297c19.009,0 35.424,10 43.547,24.468c22.923,3.831 39.632,21.589 39.632,43.718l-0,4.184l0.509,8.12l12.35,0c2.89,-0 5.333,2.142 5.711,5.007l17.639,133.711c0.211,1.597 -0.257,3.209 -1.29,4.446c-1.033,1.236 -2.536,1.984 -4.145,2.061l-154.473,7.409c-1.232,0.059 -2.45,-0.279 -3.475,-0.963Zm3.199,-4.79l154.473,-7.409l-17.639,-133.711l-17.761,0l-0.858,-13.699l0,-4.364c0,-20.232 -16.173,-36.082 -37.622,-38.423c-6.605,-14.113 -21.937,-24.003 -39.797,-24.003c-23.893,0 -43.263,17.701 -43.263,39.537l0.455,14.15l-27.324,0l-6.185,144.2l35.521,23.722Zm14.838,-182.072c0,-13.102 11.622,-23.722 25.958,-23.722c8.683,0 16.369,3.896 21.082,9.879c-14.599,4.388 -26.631,14.021 -29.735,27.993l-17.761,0l0.455,-14.15Zm5.757,0.185l-0.264,8.205l7.495,0c3.811,-10.596 12.227,-18.794 22.895,-24.036c-2.94,-1.481 -6.328,-2.316 -9.925,-2.316c-11.019,0 -20.198,7.892 -20.198,17.962c0,0.062 -0.001,0.123 -0.003,0.185Zm47.07,13.965l-15.028,0c2.607,-6.741 7.652,-10.103 15.028,-12.485l0,12.485Zm17.761,0l0,-12.485c7.375,2.382 11.055,5.745 13.662,12.485l-13.662,0Zm-38.254,9.988l43.719,0l10.93,1.867l0,6.243l-54.648,0l0,-8.11Zm-68.132,18.41l2.554,-18.41l49.183,0l0,8.11l-24.592,0.417l-6.185,138.379l-2.96,-2.705l6.026,-128.917l-24.026,3.127Zm21.322,-8.584l0.07,-1.557c0.041,-0.908 0.29,-1.76 0.701,-2.509l-14.522,0l-0.827,5.964l14.579,-1.898Z"/><path d="M305.546,336.506l3.674,-5.76l2.636,5.668l32.85,2.215l4.609,2.881l21.074,36.74l11.218,-1.567l5.336,9.251l-22.834,29.226l1.627,17.89l-2.264,5.117l-7.18,5.425l-0.952,8.728l-1.415,3.195l-14.255,16.088l-3.382,1.865l-15.547,2.542l-6.379,-3.819l-11.537,-33.699l0.089,-3.974l3.896,-9.902l-8.466,-15.346l-0.507,-4.324l1.395,-5.023l-7.027,-1.405l-17.589,3.632l-5.427,-1.766l-16.291,-17.92l-1.498,-3.875l0,-15.273l1.213,-3.536l21.382,-27.491l3.951,-2.193l25.455,-2.648l0.299,5.76l-25.158,2.617l-21.382,27.491l0,15.273l16.291,17.92l18.735,-3.869l14.255,2.851l-3.055,10.997l9.774,17.717l-4.887,12.422l11.537,33.699l15.547,-2.542l14.255,-16.088l1.222,-11.2l9.164,-6.924l-1.833,-20.16l24.238,-31.023l-15.074,2.106l-23.011,-40.117l-36.248,-2.444l-2.523,-5.426Zm-0.287,-0.618l2.811,-6.786l-2.811,6.786l-0,-0Z"/><path d="M226.596,524.797c0,0 -17.418,0.034 -17.418,0.034c-2.391,0.005 -5.291,0.302 -7.638,0.607c1.986,-1.588 4.186,-3.609 5.533,-5.652l19.526,-29.63c0.894,-1.357 1.151,-2.547 0.897,-4.152l-0.824,-5.203l-34.253,0c-3.946,0 -5.054,-0.797 -5.054,-0.797c-0.431,3.453 -1.398,8.13 -1.398,9.567c0,1.57 1.305,3.233 1.305,3.233l14.573,-0.03c1.614,-0.003 4.099,-0.466 6.02,-0.886c-1.751,1.322 -4.202,3.471 -6.027,6.259l-17.816,27.211c-0.89,1.358 -1.145,2.548 -0.89,4.152l1.154,7.29l37.164,0c3.946,0 5.054,0.8 5.054,0.8c0.43,-3.455 1.398,-8.133 1.398,-9.57c0,-1.569 -1.306,-3.233 -1.306,-3.233Z" style="fill:#fc0;fill-rule:nonzero;"/><path d="M263.998,480c-17.52,0 -30.48,12.08 -30.48,30.08c0,16.72 11.12,27.52 27.68,27.52c17.6,0 30.4,-12.24 30.4,-30.105c0,-16.535 -10.96,-27.495 -27.6,-27.495Zm-3.2,11.6c8.32,0 14.56,7.52 14.56,19.36c0,9.04 -3.68,15.12 -11.2,14.96c-8.8,-0.16 -14.4,-8.32 -14.4,-19.36c0,-8.32 3.2,-14.96 11.04,-14.96Z" style="fill:#fc0;fill-rule:nonzero;"/><path d="M334.443,512.695c6.125,-1.486 12.794,-6.444 12.794,-16.215c0,-12.057 -9.662,-16.48 -26.389,-16.48c-7.218,0 -14.722,0.912 -18.37,1.6l0,54.24c0,0 1.664,1.36 3.233,1.36c1.916,0 8.754,-0.4 12.767,-0.4l0,-44.837c1.619,-0.12 3.148,-0.203 4.23,-0.203c5.434,0 8.516,2.21 8.516,7.04c0,3.894 -1.921,6.511 -7.574,8.524c-2.066,0.736 -2.99,1.979 -1.83,4.698l6.894,16.137c3.012,7.052 6.841,10.242 13.131,10.242c6.235,0 10.15,-3.238 10.15,-8.395c-6.81,-1.75 -11.99,-11.762 -17.551,-17.31Z" style="fill:#fc0;fill-rule:nonzero;"/><path d="M393.48,481.76c0,0 -1.664,-1.36 -3.233,-1.36c-1.2,0 -9.247,0.4 -14.245,0.4c0,0 0.398,3.35 -0.646,6.197l-17.919,48.843c0,0 1.664,1.36 3.233,1.36c1.768,0 7.29,-0.4 11.779,-0.4l4.648,-13.409l15.127,0l4.258,12.449c0,0 1.663,1.36 3.233,1.36c2.027,0 8.809,-0.4 14.223,-0.4l-20.458,-55.04Zm-9.673,10.544c0.289,1.222 1.289,5.333 2.993,11.14l2.802,9.547l-10.715,0l2.778,-10.27c0.922,-3.411 1.888,-8.925 2.143,-10.417Z" style="fill:#fc0;fill-rule:nonzero;"/></svg>